<svg xmlns="http://www.w3.org/2000/svg" xmlns:xlink="http://www.w3.org/1999/xlink" width="512" zoomAndPan="magnify" viewBox="0 0 384 383.999986" height="512" preserveAspectRatio="xMidYMid meet" version="1.0"><defs><g/><clipPath id="1885b25406"><path d="M 107.363281 54 L 276.863281 54 L 276.863281 330 L 107.363281 330 Z M 107.363281 54 " clip-rule="nonzero"/></clipPath></defs><rect x="-38.4" width="460.8" fill="#ffffff" y="-38.399999" height="460.799983" fill-opacity="1"/><rect x="-38.4" width="460.8" fill="#ffffff" y="-38.399999" height="460.799983" fill-opacity="1"/><g clip-path="url(#1885b25406)"><path fill="#ad2632" d="M 270.617188 107.214844 L 270.617188 101.5 C 270.617188 96.691406 266.707031 92.78125 261.898438 92.78125 L 257.6875 92.78125 C 257.6875 90.679688 255.882812 89.175781 253.777344 89.175781 L 235.441406 89.175781 C 233.335938 89.175781 231.832031 90.679688 231.832031 92.78125 L 224.015625 92.78125 L 224.015625 54 L 158.773438 54 L 158.773438 92.480469 L 150.957031 92.480469 C 150.957031 90.378906 149.152344 88.875 147.347656 88.875 L 129.007812 88.875 C 126.90625 88.875 125.402344 90.378906 125.402344 92.480469 L 121.191406 92.480469 C 116.382812 92.480469 112.472656 96.390625 112.472656 101.199219 L 112.472656 106.914062 C 109.769531 107.214844 107.363281 109.316406 107.363281 112.324219 L 107.363281 282.792969 C 107.363281 285.5 109.46875 287.902344 112.472656 288.203125 L 112.472656 294.21875 C 112.472656 299.027344 116.382812 302.9375 121.191406 302.9375 L 142.539062 302.9375 L 142.539062 307.746094 C 137.726562 308.949219 134.421875 313.460938 134.421875 318.570312 C 134.421875 324.582031 139.53125 329.695312 145.546875 329.695312 C 151.558594 329.695312 156.667969 324.582031 156.667969 318.570312 C 156.667969 313.460938 153.363281 309.25 148.550781 307.746094 L 148.550781 303.238281 L 235.441406 303.238281 L 235.441406 308.046875 C 230.628906 309.25 227.320312 313.761719 227.320312 318.871094 C 227.320312 324.882812 232.433594 329.996094 238.445312 329.996094 C 244.457031 329.996094 249.570312 324.882812 249.570312 318.871094 C 249.570312 313.761719 246.261719 309.550781 241.453125 308.046875 L 241.453125 303.238281 L 262.796875 303.238281 C 267.609375 303.238281 271.515625 299.328125 271.515625 294.519531 L 271.515625 288.804688 C 274.222656 288.503906 276.628906 286.402344 276.628906 283.394531 L 276.628906 112.625 C 275.726562 109.617188 273.621094 107.515625 270.617188 107.214844 Z M 165.988281 61.515625 L 216.199219 61.515625 L 216.199219 92.480469 L 165.988281 92.480469 Z M 165.988281 61.515625 " fill-opacity="1" fill-rule="nonzero"/></g><g fill="#fdf7f8" fill-opacity="1"><g transform="translate(156.877705, 224.689288)"><g><path d="M 32.28125 -28.234375 L 21.578125 -17.25 L 21.578125 0 L 9.0625 0 L 9.0625 -67.4375 L 21.578125 -67.4375 L 21.578125 -32.859375 L 54.921875 -67.4375 L 68.984375 -67.4375 L 40.65625 -37.28125 L 70.71875 0 L 56.078125 0 Z M 32.28125 -28.234375 "/></g></g></g></svg>